<svg width="59" height="59" viewBox="0 0 59 59" fill="none" xmlns="http://www.w3.org/2000/svg">
<path d="M50.3757 57.4276H9.19258C4.98509 57.4276 1.57031 54.0129 1.57031 49.8054V8.62227C1.57031 4.41478 4.98509 1 9.19258 1H50.3757C54.5832 1 57.998 4.41478 57.998 8.62227V49.8054C57.998 54.0129 54.5832 57.4276 50.3757 57.4276Z" stroke="white" stroke-width="2" stroke-miterlimit="10" stroke-linecap="round" stroke-linejoin="round"/>
<path d="M29.7888 1V57.4276" stroke="white" stroke-width="2" stroke-miterlimit="10" stroke-linecap="round" stroke-linejoin="round"/>
<path d="M57.9985 29.2178H1.57086" stroke="white" stroke-width="2" stroke-miterlimit="10" stroke-linecap="round" stroke-linejoin="round"/>
<path d="M43.8889 50.8191V36.4893" stroke="white" stroke-width="2" stroke-miterlimit="10" stroke-linecap="round" stroke-linejoin="round"/>
<path d="M51.0533 43.6543H36.7311" stroke="white" stroke-width="2" stroke-miterlimit="10" stroke-linecap="round" stroke-linejoin="round"/>
<path d="M15.6809 10.2225C16.7038 10.2225 17.5331 9.39323 17.5331 8.37028C17.5331 7.34733 16.7038 6.51807 15.6809 6.51807C14.6579 6.51807 13.8286 7.34733 13.8286 8.37028C13.8286 9.39323 14.6579 10.2225 15.6809 10.2225Z" fill="white"/>
<path d="M15.6809 23.0282C16.7038 23.0282 17.5331 22.1989 17.5331 21.1759C17.5331 20.153 16.7038 19.3237 15.6809 19.3237C14.6579 19.3237 13.8286 20.153 13.8286 21.1759C13.8286 22.1989 14.6579 23.0282 15.6809 23.0282Z" fill="white"/>
<path d="M22.8372 14.7734H8.51498" stroke="white" stroke-width="2" stroke-miterlimit="10" stroke-linecap="round" stroke-linejoin="round"/>
<path d="M22.8366 43.6543H8.51437" stroke="white" stroke-width="2" stroke-miterlimit="10" stroke-linecap="round" stroke-linejoin="round"/>
<path d="M48.9577 19.8343L38.8277 9.71191" stroke="white" stroke-width="2" stroke-miterlimit="10" stroke-linecap="round" stroke-linejoin="round"/>
<path d="M48.9577 9.71191L38.8277 19.8343" stroke="white" stroke-width="2" stroke-miterlimit="10" stroke-linecap="round" stroke-linejoin="round"/>
</svg>
