<svg width="47" height="59" viewBox="0 0 47 59" fill="none" xmlns="http://www.w3.org/2000/svg">
<path d="M20.6182 41.1356C20.6182 42.6127 19.4258 43.8052 17.9486 43.8052C16.4715 43.8052 15.256 42.6127 15.256 41.1356C15.256 39.6585 16.4715 38.4661 17.9486 38.4661C19.4258 38.4661 20.6182 39.6585 20.6182 41.1356Z" fill="white"/>
<path d="M29.7956 47.5594C29.7956 49.475 28.2493 51.0213 26.3337 51.0213C24.4181 51.0213 22.8717 49.475 22.8717 47.5594C22.8717 45.6361 24.4181 44.0974 26.3337 44.0974C28.2493 44.0743 29.7956 45.6361 29.7956 47.5594Z" fill="white"/>
<path d="M24.549 29.2265C24.549 30.3112 23.6643 31.1883 22.5872 31.1883C21.5025 31.1883 20.6255 30.3035 20.6255 29.2265C20.6255 28.1417 21.5102 27.2647 22.5872 27.2647C23.6643 27.257 24.549 28.1417 24.549 29.2265Z" fill="white"/>
<path d="M30.988 36.2504C30.988 37.3351 30.1033 38.2121 29.0262 38.2121C27.9415 38.2121 27.0645 37.3274 27.0645 36.2504C27.0645 35.1656 27.9492 34.2886 29.0262 34.2886C30.1033 34.2886 30.988 35.1733 30.988 36.2504Z" fill="white"/>
<path d="M27.4654 1H29.8882C30.2882 1 30.619 1.31542 30.619 1.75394C30.619 2.16168 30.2959 2.4848 29.8882 2.4848H28.3495V4.02345V21.1871C28.3495 21.9103 28.5111 22.7181 28.7342 23.4335C28.9573 24.149 29.2881 24.9029 29.7035 25.503L44.8515 47.1903C45.5747 48.2366 45.9901 49.5136 45.9901 50.8907V50.7446C45.9901 54.4373 42.9975 57.43 39.3047 57.43H7.68543C3.99267 57.43 1 54.4373 1 50.7446V50.8907C1 49.5059 1.42313 48.2366 2.1386 47.1903L17.2866 25.503C17.702 24.9029 18.0252 24.149 18.256 23.4335C18.4791 22.7181 18.6406 21.9103 18.6406 21.1871V4.03114V2.49249H17.102C16.6942 2.49249 16.3711 2.16937 16.3711 1.76163C16.3711 1.32312 16.7096 1.00769 17.102 1.00769H19.5255" stroke="white" stroke-width="2"/>
</svg>
